<svg xmlns="http://www.w3.org/2000/svg" xmlns:xlink="http://www.w3.org/1999/xlink" viewBox="0 0 966.37 970.67"><defs><style>.cls-1{fill:none;}.cls-2{fill:#dc9777;}.cls-3{clip-path:url(#clip-path);}.cls-4{fill:#95683d;}.cls-5{fill:#ffba7d;}.cls-6{fill:#2d2d30;}.cls-7{fill:#e5dda0;}</style><clipPath id="clip-path" transform="translate(-16.67 -14.67)"><rect class="cls-1" x="645" y="645" width="355" height="355"/></clipPath></defs><g id="Calque_5" data-name="Calque 5"><rect class="cls-2" width="153.33" height="970.67"/><rect class="cls-2" x="606.67" width="153.33" height="591.83"/><rect class="cls-2" x="223.16" y="255.83" width="153.33" height="488.34" rx="59.67" transform="translate(783.16 185.5) rotate(90)"/><g class="cls-3"><g class="cls-3"><path class="cls-4" d="M977.75,893c-15.89,50.72-60.6,74.49-65.79,77.15-26.85,13.76-51.28,14.3-68.16,14.67a191.34,191.34,0,0,1-68.39-11.27c-15.65-5.62-61.68-22.89-93-70.61-8.45-12.88-25.09-38.91-27-75.74-3.14-61.34,37.14-104.13,48.28-116,8.71-9.25,51-52.22,118.34-56.33,17.11-1.05,58.49-3.57,95.79,23.18,35.06,25.15,46.87,62.08,54.73,86.63,9.81,30.71,10.26,57.43,10.41,73.37.22,23.07.35,37.18-5.21,54.91" transform="translate(-16.67 -14.67)"/><path class="cls-2" d="M947.46,801.67c-12.75,57.47-55.77,89.14-61.53,93.25-36.3,25.89-73,28.18-87.1,28.87-17.38.85-45.81,2.25-75.73-14.67-8.11-4.59-34.24-19.83-47.94-50.58-24.27-54.49,11.52-110.5,17.17-119.35,34.51-54,92.47-66.12,111.24-70.05,14.81-3.1,42.8-8.6,75,1.91,10,3.26,28.92,9.67,45.65,27.44A103,103,0,0,1,946,735.41c9.55,28.18,4.43,52.72,1.42,66.26" transform="translate(-16.67 -14.67)"/></g><g class="cls-3"><path class="cls-5" d="M909.05,847.94c-3.31,4.91-18.81.23-34.63-10.44s-26-23.29-22.65-28.2,18.81-.23,34.63,10.45,26,23.29,22.65,28.19" transform="translate(-16.67 -14.67)"/><path class="cls-5" d="M870,881.43c-4.63,3.69-18-5.41-29.93-20.31s-17.82-30-13.2-33.68,18,5.4,29.93,20.31,17.82,30,13.2,33.68" transform="translate(-16.67 -14.67)"/><path class="cls-5" d="M819,908.12c-5.75,1.35-13.76-11.77-17.89-29.31s-2.79-32.85,3-34.2,13.77,11.76,17.89,29.3,2.8,32.86-3,34.21" transform="translate(-16.67 -14.67)"/><path class="cls-5" d="M776.86,895.58c-5.31-.74-7.81-14.25-5.57-30.18s8.36-28.22,13.67-27.47,7.81,14.26,5.57,30.18-8.35,28.22-13.67,27.47" transform="translate(-16.67 -14.67)"/><path class="cls-5" d="M939.88,769.36c0,5.91-15.47,10.71-34.55,10.71s-34.55-4.8-34.55-10.71,15.47-10.71,34.55-10.71,34.55,4.8,34.55,10.71" transform="translate(-16.67 -14.67)"/><path class="cls-5" d="M934.89,730.9c.93,6.05-12.56,13.15-30.14,15.85s-32.57,0-33.51-6.07,12.57-13.15,30.14-15.86,32.58,0,33.51,6.08" transform="translate(-16.67 -14.67)"/><path class="cls-5" d="M783,755.9c-4.94,3.25-17.45-7-28-23S740,701.45,745,698.19s17.46,7,27.95,23,15,31.49,10.06,34.75" transform="translate(-16.67 -14.67)"/><path class="cls-5" d="M764.6,770.7c-3.31,4.91-18.82.23-34.63-10.44s-26-23.3-22.65-28.2,18.81-.23,34.63,10.44,25.95,23.3,22.65,28.2" transform="translate(-16.67 -14.67)"/><path class="cls-5" d="M745.38,787c-2.08,5.14-14.9,4.81-28.63-.74s-23.17-14.22-21.1-19.36,14.9-4.8,28.63.75,23.17,14.21,21.1,19.35" transform="translate(-16.67 -14.67)"/><path class="cls-5" d="M749.61,811c0,6-15.74,10.79-35.15,10.79S679.32,817,679.32,811s15.73-10.79,35.14-10.79,35.15,4.83,35.15,10.79" transform="translate(-16.67 -14.67)"/><path class="cls-5" d="M737.64,906c-5.48-2.22-4.35-17.81,2.53-34.83s16.9-29,22.39-26.8,4.35,17.81-2.53,34.83-16.9,29-22.39,26.8" transform="translate(-16.67 -14.67)"/><path class="cls-5" d="M708.71,886c-4.14-3.43-.36-14.83,8.46-25.46s19.32-16.46,23.46-13,.35,14.84-8.46,25.47-19.32,16.46-23.46,13" transform="translate(-16.67 -14.67)"/><path class="cls-5" d="M683.36,850.74c-1.38-4.51,10.23-12,25.93-16.84s29.54-5,30.91-.51S730,845.44,714.27,850.23s-29.54,5-30.91.51" transform="translate(-16.67 -14.67)"/><path class="cls-5" d="M921.76,818.71c-2.1,4.36-14.82,2.57-28.41-4s-22.9-15.4-20.8-19.76,14.83-2.57,28.41,4,22.9,15.41,20.8,19.77" transform="translate(-16.67 -14.67)"/><path class="cls-5" d="M876,723c-3.21-2.93-1.11-10.46,4.7-16.82S893.87,697,897.08,700s1.1,10.47-4.71,16.83S879.25,725.92,876,723" transform="translate(-16.67 -14.67)"/><path class="cls-5" d="M843.14,732.73c-3.91-1.89-1.86-14.27,4.6-27.64s14.87-22.69,18.78-20.8,1.86,14.27-4.59,27.64-14.87,22.69-18.79,20.8" transform="translate(-16.67 -14.67)"/><path class="cls-5" d="M823.35,735.86c-4.73-.67-6.69-14.5-4.39-30.91s8-29.16,12.73-28.49,6.69,14.5,4.39,30.9-8,29.16-12.73,28.5" transform="translate(-16.67 -14.67)"/><path class="cls-5" d="M799.15,737.73c-4.3.66-9.61-10.69-11.86-25.35s-.6-27.09,3.7-27.75,9.61,10.69,11.86,25.35.6,27.09-3.7,27.75" transform="translate(-16.67 -14.67)"/></g><g class="cls-3"><path class="cls-6" d="M766,764.44c.12.71.7,4-1.27,6.47-2.4,3-6.88,2.65-8.52,2.52-5.33-.42-13.29-4-13.25-9.86,0-3.93,3.71-7.36,7.32-8.55,6.13-2,11.3,2.7,12.09,3.42a10.58,10.58,0,0,1,3.63,6" transform="translate(-16.67 -14.67)"/><path class="cls-6" d="M747.71,784.63c-.09,3.47-3.72,5.68-6.62,6-3.66.4-7.82-2-8.21-5.21-.45-3.69,4.19-7.62,8.52-7.1,3,.36,6.4,2.89,6.31,6.31" transform="translate(-16.67 -14.67)"/><path class="cls-6" d="M749.59,811.93a10,10,0,0,1-2.62,6.15c-2.07,2.21-4.46,2.36-7.21,2.53s-6,.37-8.78-2.21a9.29,9.29,0,0,1-3.15-6.47c-.09-4.37,3.36-7.08,3.8-7.42,1.89-1.43,4-1.37,8.13-1.26s6.38.21,7.86,1.89c2.2,2.5,2,6.34,2,6.79" transform="translate(-16.67 -14.67)"/><path class="cls-6" d="M744.4,835.91c0,3.4-3.6,6.15-8,6.15s-8-2.75-8-6.15,3.6-6.15,8-6.15,8,2.75,8,6.15" transform="translate(-16.67 -14.67)"/><path class="cls-6" d="M745.66,852.16c0,3.57-3.49,6.47-7.81,6.47s-7.81-2.9-7.81-6.47,3.5-6.47,7.81-6.47,7.81,2.9,7.81,6.47" transform="translate(-16.67 -14.67)"/><path class="cls-6" d="M767.59,852.87c0,5.54-3.53,10-7.89,10s-7.88-4.48-7.88-10,3.53-10,7.88-10,7.89,4.49,7.89,10" transform="translate(-16.67 -14.67)"/><path class="cls-6" d="M793.23,847.31a9.67,9.67,0,1,1-9.66-9.66,9.65,9.65,0,0,1,9.66,9.66" transform="translate(-16.67 -14.67)"/><path class="cls-6" d="M813.82,851.22c0,5.66-3.81,10.25-8.52,10.25s-8.52-4.59-8.52-10.25S800.6,841,805.3,841s8.52,4.59,8.52,10.26" transform="translate(-16.67 -14.67)"/><path class="cls-6" d="M841.7,829.68a11.28,11.28,0,1,1-11.28-11.28,11.28,11.28,0,0,1,11.28,11.28" transform="translate(-16.67 -14.67)"/><path class="cls-6" d="M866.52,810.57c0,5-4.87,9.06-10.89,9.06s-10.88-4.06-10.88-9.06,4.87-9.05,10.88-9.05,10.89,4.05,10.89,9.05" transform="translate(-16.67 -14.67)"/><path class="cls-6" d="M886.56,797.89c0,4-4.17,7.25-9.31,7.25s-9.31-3.24-9.31-7.25,4.17-7.26,9.31-7.26,9.31,3.25,9.31,7.26" transform="translate(-16.67 -14.67)"/><path class="cls-6" d="M886.56,771c0,4.07-5.51,7.37-12.31,7.37S861.94,775,861.94,771s5.51-7.38,12.31-7.38,12.31,3.3,12.31,7.38" transform="translate(-16.67 -14.67)"/><path class="cls-6" d="M890.54,741.86c0,4.7-5.06,8.51-11.3,8.51s-11.3-3.81-11.3-8.51,5.06-8.5,11.3-8.5,11.3,3.8,11.3,8.5" transform="translate(-16.67 -14.67)"/><path class="cls-6" d="M887.66,717.81a8.13,8.13,0,1,1-8.12-8.12,8.13,8.13,0,0,1,8.12,8.12" transform="translate(-16.67 -14.67)"/><path class="cls-6" d="M854.06,727.28c0,4.75-4.21,8.6-9.39,8.6s-9.39-3.85-9.39-8.6,4.2-8.6,9.39-8.6,9.39,3.85,9.39,8.6" transform="translate(-16.67 -14.67)"/><path class="cls-6" d="M832,727c0,6.1-3.43,11.05-7.66,11.05s-7.65-5-7.65-11.05,3.43-11,7.65-11,7.66,4.94,7.66,11" transform="translate(-16.67 -14.67)"/><path class="cls-6" d="M806.72,731.07c0,4.83-3.6,8.75-8,8.75s-8-3.92-8-8.75,3.6-8.76,8-8.76,8,3.92,8,8.76" transform="translate(-16.67 -14.67)"/><path class="cls-6" d="M788,753.08a8.49,8.49,0,0,1-6.86,5.52c-5.3.53-10.37-5.08-9.94-10.41.27-3.26,2.64-7,6.31-7.73s6.36,1.72,7.1,2.36c2.23,1.92,5,6,3.39,10.26" transform="translate(-16.67 -14.67)"/></g><g class="cls-3"><path class="cls-7" d="M853.74,792.21c-5.41,9.62-18.59,3.62-28.4,14.2s-3.49,24.47-12.31,29.34c-6.1,3.37-10.5-2.48-23.66-3.78-21.65-2.15-35.64,11.13-39.29,6.62-3.2-4,9-12.37,9.94-28.87.88-15.4-8.95-22.43-4.73-28.87,4.9-7.49,18.53,1.5,32-6.4,15-8.81,11.59-28,24.36-31.47,7.56-2.05,9.81,4.36,21.78,4.26,16-.14,25.55-11.69,28.25-9,2.47,2.48-7.24,10.56-9.32,25.55s5.83,20.55,1.42,28.4" transform="translate(-16.67 -14.67)"/></g></g><g class="cls-3"><g class="cls-3"><path class="cls-4" d="M977.75,893c-15.89,50.72-60.6,74.49-65.79,77.15-26.85,13.76-51.28,14.3-68.16,14.67a191.34,191.34,0,0,1-68.39-11.27c-15.65-5.62-61.68-22.89-93-70.61-8.45-12.88-25.09-38.91-27-75.74-3.14-61.34,37.14-104.13,48.28-116,8.71-9.25,51-52.22,118.34-56.33,17.11-1.05,58.49-3.57,95.79,23.18,35.06,25.15,46.87,62.08,54.73,86.63,9.81,30.71,10.26,57.43,10.41,73.37.22,23.07.35,37.18-5.21,54.91" transform="translate(-16.67 -14.67)"/><path class="cls-2" d="M947.46,801.67c-12.75,57.47-55.77,89.14-61.53,93.25-36.3,25.89-73,28.18-87.1,28.87-17.38.85-45.81,2.25-75.73-14.67-8.11-4.59-34.24-19.83-47.94-50.58-24.27-54.49,11.52-110.5,17.17-119.35,34.51-54,92.47-66.12,111.24-70.05,14.81-3.1,42.8-8.6,75,1.91,10,3.26,28.92,9.67,45.65,27.44A103,103,0,0,1,946,735.41c9.55,28.18,4.43,52.72,1.42,66.26" transform="translate(-16.67 -14.67)"/></g><g class="cls-3"><path class="cls-5" d="M909.05,847.94c-3.31,4.91-18.81.23-34.63-10.44s-26-23.29-22.65-28.2,18.81-.23,34.63,10.45,26,23.29,22.65,28.19" transform="translate(-16.67 -14.67)"/><path class="cls-5" d="M870,881.43c-4.63,3.69-18-5.41-29.93-20.31s-17.82-30-13.2-33.68,18,5.4,29.93,20.31,17.82,30,13.2,33.68" transform="translate(-16.67 -14.67)"/><path class="cls-5" d="M819,908.12c-5.75,1.35-13.76-11.77-17.89-29.31s-2.79-32.85,3-34.2,13.77,11.76,17.89,29.3,2.8,32.86-3,34.21" transform="translate(-16.67 -14.67)"/><path class="cls-5" d="M776.86,895.58c-5.31-.74-7.81-14.25-5.57-30.18s8.36-28.22,13.67-27.47,7.81,14.26,5.57,30.18-8.35,28.22-13.67,27.47" transform="translate(-16.67 -14.67)"/><path class="cls-5" d="M939.88,769.36c0,5.91-15.47,10.71-34.55,10.71s-34.55-4.8-34.55-10.71,15.47-10.71,34.55-10.71,34.55,4.8,34.55,10.71" transform="translate(-16.67 -14.67)"/><path class="cls-5" d="M934.89,730.9c.93,6.05-12.56,13.15-30.14,15.85s-32.57,0-33.51-6.07,12.57-13.15,30.14-15.86,32.58,0,33.51,6.08" transform="translate(-16.67 -14.67)"/><path class="cls-5" d="M783,755.9c-4.94,3.25-17.45-7-28-23S740,701.45,745,698.19s17.46,7,27.95,23,15,31.49,10.06,34.75" transform="translate(-16.67 -14.67)"/><path class="cls-5" d="M764.6,770.7c-3.31,4.91-18.82.23-34.63-10.44s-26-23.3-22.65-28.2,18.81-.23,34.63,10.44,25.95,23.3,22.65,28.2" transform="translate(-16.67 -14.67)"/><path class="cls-5" d="M745.38,787c-2.08,5.14-14.9,4.81-28.63-.74s-23.17-14.22-21.1-19.36,14.9-4.8,28.63.75,23.17,14.21,21.1,19.35" transform="translate(-16.67 -14.67)"/><path class="cls-5" d="M749.61,811c0,6-15.74,10.79-35.15,10.79S679.32,817,679.32,811s15.73-10.79,35.14-10.79,35.15,4.83,35.15,10.79" transform="translate(-16.67 -14.67)"/><path class="cls-5" d="M737.64,906c-5.48-2.22-4.35-17.81,2.53-34.83s16.9-29,22.39-26.8,4.35,17.81-2.53,34.83-16.9,29-22.39,26.8" transform="translate(-16.67 -14.67)"/><path class="cls-5" d="M708.71,886c-4.14-3.43-.36-14.83,8.46-25.46s19.32-16.46,23.46-13,.35,14.84-8.46,25.47-19.32,16.46-23.46,13" transform="translate(-16.67 -14.67)"/><path class="cls-5" d="M683.36,850.74c-1.38-4.51,10.23-12,25.93-16.84s29.54-5,30.91-.51S730,845.44,714.27,850.23s-29.54,5-30.91.51" transform="translate(-16.67 -14.67)"/><path class="cls-5" d="M921.76,818.71c-2.1,4.36-14.82,2.57-28.41-4s-22.9-15.4-20.8-19.76,14.83-2.57,28.41,4,22.9,15.41,20.8,19.77" transform="translate(-16.67 -14.67)"/><path class="cls-5" d="M876,723c-3.21-2.93-1.11-10.46,4.7-16.82S893.87,697,897.08,700s1.1,10.47-4.71,16.83S879.25,725.92,876,723" transform="translate(-16.67 -14.67)"/><path class="cls-5" d="M843.14,732.73c-3.91-1.89-1.86-14.27,4.6-27.64s14.87-22.69,18.78-20.8,1.86,14.27-4.59,27.64-14.87,22.69-18.79,20.8" transform="translate(-16.67 -14.67)"/><path class="cls-5" d="M823.35,735.86c-4.73-.67-6.69-14.5-4.39-30.91s8-29.16,12.73-28.49,6.69,14.5,4.39,30.9-8,29.16-12.73,28.5" transform="translate(-16.67 -14.67)"/><path class="cls-5" d="M799.15,737.73c-4.3.66-9.61-10.69-11.86-25.35s-.6-27.09,3.7-27.75,9.61,10.69,11.86,25.35.6,27.09-3.7,27.75" transform="translate(-16.67 -14.67)"/></g><g class="cls-3"><path class="cls-6" d="M766,764.44c.12.71.7,4-1.27,6.47-2.4,3-6.88,2.65-8.52,2.52-5.33-.42-13.29-4-13.25-9.86,0-3.93,3.71-7.36,7.32-8.55,6.13-2,11.3,2.7,12.09,3.42a10.58,10.58,0,0,1,3.63,6" transform="translate(-16.67 -14.67)"/><path class="cls-6" d="M747.71,784.63c-.09,3.47-3.72,5.68-6.62,6-3.66.4-7.82-2-8.21-5.21-.45-3.69,4.19-7.62,8.52-7.1,3,.36,6.4,2.89,6.31,6.31" transform="translate(-16.67 -14.67)"/><path class="cls-6" d="M749.59,811.93a10,10,0,0,1-2.62,6.15c-2.07,2.21-4.46,2.36-7.21,2.53s-6,.37-8.78-2.21a9.29,9.29,0,0,1-3.15-6.47c-.09-4.37,3.36-7.08,3.8-7.42,1.89-1.43,4-1.37,8.13-1.26s6.38.21,7.86,1.89c2.2,2.5,2,6.34,2,6.79" transform="translate(-16.67 -14.67)"/><path class="cls-6" d="M744.4,835.91c0,3.4-3.6,6.15-8,6.15s-8-2.75-8-6.15,3.6-6.15,8-6.15,8,2.75,8,6.15" transform="translate(-16.67 -14.67)"/><path class="cls-6" d="M745.66,852.16c0,3.57-3.49,6.47-7.81,6.47s-7.81-2.9-7.81-6.47,3.5-6.47,7.81-6.47,7.81,2.9,7.81,6.47" transform="translate(-16.67 -14.67)"/><path class="cls-6" d="M767.59,852.87c0,5.54-3.53,10-7.89,10s-7.88-4.48-7.88-10,3.53-10,7.88-10,7.89,4.49,7.89,10" transform="translate(-16.67 -14.67)"/><path class="cls-6" d="M793.23,847.31a9.67,9.67,0,1,1-9.66-9.66,9.65,9.65,0,0,1,9.66,9.66" transform="translate(-16.67 -14.67)"/><path class="cls-6" d="M813.82,851.22c0,5.66-3.81,10.25-8.52,10.25s-8.52-4.59-8.52-10.25S800.6,841,805.3,841s8.52,4.59,8.52,10.26" transform="translate(-16.67 -14.67)"/><path class="cls-6" d="M841.7,829.68a11.28,11.28,0,1,1-11.28-11.28,11.28,11.28,0,0,1,11.28,11.28" transform="translate(-16.67 -14.67)"/><path class="cls-6" d="M866.52,810.57c0,5-4.87,9.06-10.89,9.06s-10.88-4.06-10.88-9.06,4.87-9.05,10.88-9.05,10.89,4.05,10.89,9.05" transform="translate(-16.67 -14.67)"/><path class="cls-6" d="M886.56,797.89c0,4-4.17,7.25-9.31,7.25s-9.31-3.24-9.31-7.25,4.17-7.26,9.31-7.26,9.31,3.25,9.31,7.26" transform="translate(-16.67 -14.67)"/><path class="cls-6" d="M886.56,771c0,4.07-5.51,7.37-12.31,7.37S861.94,775,861.94,771s5.51-7.38,12.31-7.38,12.31,3.3,12.31,7.38" transform="translate(-16.67 -14.67)"/><path class="cls-6" d="M890.54,741.86c0,4.7-5.06,8.51-11.3,8.51s-11.3-3.81-11.3-8.51,5.06-8.5,11.3-8.5,11.3,3.8,11.3,8.5" transform="translate(-16.67 -14.67)"/><path class="cls-6" d="M887.66,717.81a8.13,8.13,0,1,1-8.12-8.12,8.13,8.13,0,0,1,8.12,8.12" transform="translate(-16.67 -14.67)"/><path class="cls-6" d="M854.06,727.28c0,4.75-4.21,8.6-9.39,8.6s-9.39-3.85-9.39-8.6,4.2-8.6,9.39-8.6,9.39,3.85,9.39,8.6" transform="translate(-16.67 -14.67)"/><path class="cls-6" d="M832,727c0,6.1-3.43,11.05-7.66,11.05s-7.65-5-7.65-11.05,3.43-11,7.65-11,7.66,4.94,7.66,11" transform="translate(-16.67 -14.67)"/><path class="cls-6" d="M806.72,731.07c0,4.83-3.6,8.75-8,8.75s-8-3.92-8-8.75,3.6-8.76,8-8.76,8,3.92,8,8.76" transform="translate(-16.67 -14.67)"/><path class="cls-6" d="M788,753.08a8.49,8.49,0,0,1-6.86,5.52c-5.3.53-10.37-5.08-9.94-10.41.27-3.26,2.64-7,6.31-7.73s6.36,1.72,7.1,2.36c2.23,1.92,5,6,3.39,10.26" transform="translate(-16.67 -14.67)"/></g><g class="cls-3"><path class="cls-7" d="M853.74,792.21c-5.41,9.62-18.59,3.62-28.4,14.2s-3.49,24.47-12.31,29.34c-6.1,3.37-10.5-2.48-23.66-3.78-21.65-2.15-35.64,11.13-39.29,6.62-3.2-4,9-12.37,9.94-28.87.88-15.4-8.95-22.43-4.73-28.87,4.9-7.49,18.53,1.5,32-6.4,15-8.81,11.59-28,24.36-31.47,7.56-2.05,9.81,4.36,21.78,4.26,16-.14,25.55-11.69,28.25-9,2.47,2.48-7.24,10.56-9.32,25.55s5.83,20.55,1.42,28.4" transform="translate(-16.67 -14.67)"/></g></g><path class="cls-2" d="M1772-1324" transform="translate(-16.67 -14.67)"/><path class="cls-2" d="M758.67,980H623.33V518H776.67c-.23,24.38-.11,43.5,0,55,.4,41.88,1.47,56.58-9.11,70.33-5.5,7.15-9.64,8.18-24.56,17.67a422.77,422.77,0,0,0-55,43c-45.27,42.44-46,113.15-46,119,0,14.62.69,54.47,28,94C700.89,961.72,745.28,976.18,758.67,980Z" transform="translate(-16.67 -14.67)"/><path class="cls-2" d="M1144,924" transform="translate(-16.67 -14.67)"/></g></svg>