<svg id="eIj7lNgXaDK1" xmlns="http://www.w3.org/2000/svg" xmlns:xlink="http://www.w3.org/1999/xlink" viewBox="0 0 3000 3000" shape-rendering="geometricPrecision" text-rendering="geometricPrecision"><style><![CDATA[#eIj7lNgXaDK3_ts {animation: eIj7lNgXaDK3_ts__ts 3000ms linear infinite alternate-reverse forwards}@keyframes eIj7lNgXaDK3_ts__ts { 0% {transform: translate(987.439999px,2320.095px) scale(1,0)} 26.666667% {transform: translate(987.439999px,2320.095px) scale(1,1)} 100% {transform: translate(987.439999px,2320.095px) scale(1,1)}} #eIj7lNgXaDK4_ts {animation: eIj7lNgXaDK4_ts__ts 3000ms linear infinite alternate-reverse forwards}@keyframes eIj7lNgXaDK4_ts__ts { 0% {transform: translate(2012.560001px,679.905px) scale(1,0)} 26.666667% {transform: translate(2012.560001px,679.905px) scale(1,1)} 100% {transform: translate(2012.560001px,679.905px) scale(1,1)}} #eIj7lNgXaDK5_ts {animation: eIj7lNgXaDK5_ts__ts 3000ms linear infinite alternate-reverse forwards}@keyframes eIj7lNgXaDK5_ts__ts { 0% {transform: translate(923.779999px,1500.005px) scale(0,1)} 16.666667% {transform: translate(923.779999px,1500.005px) scale(0,1)} 26.666667% {transform: translate(923.779999px,1500.005px) scale(1,1)} 100% {transform: translate(923.779999px,1500.005px) scale(1,1)}}]]></style><g id="eIj7lNgXaDK2"><g id="eIj7lNgXaDK3_ts" transform="translate(987.439999,2320.095) scale(1,1)"><rect id="eIj7lNgXaDK3" width="259.1" height="1640.19" rx="0" ry="0" transform="translate(-129.55,-1640.19)" fill="rgb(220,151,119)" stroke="none" stroke-width="1"/></g><g id="eIj7lNgXaDK4_ts" transform="translate(2012.560001,679.905) scale(1,1)"><rect id="eIj7lNgXaDK4" width="259.1" height="1640.19" rx="0" ry="0" transform="translate(-129.55,0)" fill="rgb(220,151,119)" stroke="none" stroke-width="1"/></g><g id="eIj7lNgXaDK5_ts" transform="translate(923.779999,1500.005) scale(1,1)"><path id="eIj7lNgXaDK5" d="M1500.92,1996.31L1500.92,1856.55C1500.92,1823.6,1527.63,1796.88,1560.59,1796.88L2266.43,1796.88C2299.38,1796.88,2326.1,1823.59,2326.1,1856.55L2326.1,1996.31C2326.1,2029.26,2299.39,2055.98,2266.43,2055.98L1560.59,2055.98C1527.63,2055.98,1500.92,2029.26,1500.92,1996.31Z" transform="translate(-1500.919999,-1926.43)" fill="rgb(220,151,119)" stroke="none" stroke-width="1"/></g></g><path id="eIj7lNgXaDK6" d="" transform="matrix(1 0 0 1 -508.434307 -334.81741)" fill="rgb(220,151,119)" stroke="none" stroke-width="1"/></svg>