<svg id="ebKpGml0I5s1" xmlns="http://www.w3.org/2000/svg" xmlns:xlink="http://www.w3.org/1999/xlink" viewBox="0 0 20 20" shape-rendering="geometricPrecision" text-rendering="geometricPrecision"><style><![CDATA[#ebKpGml0I5s6 {animation: ebKpGml0I5s6_c_o 3000ms linear infinite normal forwards}@keyframes ebKpGml0I5s6_c_o { 0% {opacity: 0} 33.333333% {opacity: 0} 46.666667% {opacity: 1} 60% {opacity: 0} 100% {opacity: 0}} #ebKpGml0I5s9 {animation: ebKpGml0I5s9_c_o 3000ms linear infinite normal forwards}@keyframes ebKpGml0I5s9_c_o { 0% {opacity: 0} 16.666667% {opacity: 0} 30% {opacity: 1} 43.333333% {opacity: 0} 100% {opacity: 0}} #ebKpGml0I5s11 {animation: ebKpGml0I5s11_c_o 3000ms linear infinite normal forwards}@keyframes ebKpGml0I5s11_c_o { 0% {opacity: 0} 13.333333% {opacity: 1} 26.666667% {opacity: 0} 100% {opacity: 0}}]]></style><g transform="matrix(.859853 0 0 0.923367-20.451316-101.987125)"><path d="M35.412312,115.5918c-1.442046,0-2.880739.49168-4.052401,1.4748-.705182.59173-1.2502,1.31171-1.628713,2.10012-.05253-.005-.103652-.0164-.157588-.0164-.941869,0-1.70024.75836-1.70024,1.70021v2.10134c0,.94184.758371,1.70021,1.70024,1.70021.05394,0,.105059-.0117.157588-.0164.06777.14047.137889.27991.216918.41689.308938.55139,1.134304.0793.815588-.46655-1.304955-2.26029-.799571-5.12447,1.199708-6.80208s4.903352-1.67765,6.902655,0s2.50471,4.54174,1.199732,6.80208l-.01407.0234-.0094.0234c0,0-.633799,1.40211-1.878344,1.40211l-1.575387-.0141c-.147739-.21575-.384191-.366-.666512-.366h-1.015533c-.45534,0-.821638.36752-.821638.82286c0,.28087.178225.49415.586056.49415l3.493009.00028c1.867604,0,2.675336-1.8335,2.712107-1.91835v-.005c.07832-.13578.147269-.27521.214572-.41444.05488.005.108342.0164.164858.0164.941869,0,1.700237-.75836,1.700237-1.70021v-2.10134c0-.94184-.75837-1.70021-1.700237-1.70021-.05441,0-.105762.009-.158761.0164-.377627-.78846-.921023-1.50837-1.6263-2.10014-1.171614-.98312-2.616355-1.47481-4.058451-1.47481Zm-2.049205,2.98718c-.366019-.0239-.700354.0535-.992502.36114-.779049.82018-1.260325,1.9365-1.260325,3.12533c0,.98061.327722,2.07941.879793,2.11951.786511.0572,2.027657-.45928,3.424676-.45928c1.480437,0,2.786843.57951,3.561606.44232.469528-.083.744064-1.20536.744064-2.10255c0-1.18883-.482452-2.30515-1.261524-3.12533s-1.855342,0-3.044146,0c-.743006,0-1.441646-.32109-2.051642-.36114Zm-.174473,2.02134c.434305.00017.786345.35219.786486.78651-.000141.43431-.352181.78633-.786486.78649-.434304-.00016-.786345-.35218-.786485-.78649.00014-.43432.352181-.78634.786485-.78651Zm4.452304,0c.434329.00017.786345.35219.786509.78651-.000166.43431-.35218.78633-.786509.78649-.434304-.00016-.786321-.35218-.786485-.78649.000164-.43432.352181-.78634.786485-.78651Z" transform="translate(-.000001-.248289)" fill="#dc9777" fill-rule="evenodd" stroke-width="0.620697"/></g><path d="" transform="translate(.000002 0.000001)" fill="none" stroke="#3f5787" stroke-width="0.5"/><g transform="matrix(.968222-.250091 0.250091 0.968222-.497174 3.640859)"><path id="ebKpGml0I5s6" d="M12.068979,3.045684c3.707198.259745,5.622284,2.535891,4.732524,6.090298" transform="translate(-.382607-2.019993)" opacity="0" fill="none" stroke="#dc9777"/><g><g transform="matrix(.577251 0 0 0.577251 5.769838 1.871972)"><path id="ebKpGml0I5s9" d="M12.068979,3.045684c3.707198.259745,5.622284,2.535891,4.732524,6.090298" transform="translate(-.951108-1.677279)" opacity="0" fill="none" stroke="#dc9777"/><g transform="matrix(.658691 0 0 0.658691 3.071441 2.379636)"><path id="ebKpGml0I5s11" d="M12.068979,3.045684c3.707198.259745,5.622284,2.535891,4.732524,6.090298" transform="translate(-.081608-1.634993)" opacity="0" fill="none" stroke="#dc9777"/></g></g></g></g></svg>