<?xml version="1.0" encoding="utf-8"?>
<!-- Generator: Adobe Illustrator 24.1.1, SVG Export Plug-In . SVG Version: 6.00 Build 0)  -->
<svg version="1.1" id="Layer_1" xmlns="http://www.w3.org/2000/svg" xmlns:xlink="http://www.w3.org/1999/xlink" x="0px" y="0px"
	 viewBox="0 0 1000 1000" style="enable-background:new 0 0 1000 1000;" xml:space="preserve">
<style type="text/css">
	.st0{fill:#DC9777;}
	.st1{fill:#2F1919;stroke:#DC9777;stroke-width:25;stroke-miterlimit:10;}
	.st2{fill:none;stroke:#DC9777;stroke-width:15;stroke-miterlimit:10;}
	.st3{fill:#2F1919;}
</style>
<polyline class="st0" points="749.7,308.7 749.7,559.6 721.8,559.6 721.8,268.5 749.7,268.5 749.7,308.7 "/>
<path class="st1" d="M687.3,824.5h-156c-82.7,0-149.7-67-149.7-149.7v-18.2c0-82.7,67-149.7,149.7-149.7h156
	C770,507,837,574,837,656.6v18.2C837,757.5,770,824.5,687.3,824.5z"/>
<path class="st1" d="M531.3,739.2c-56.3,0-112.7,0-169,0c-58.7,65.6-81.4,77.3-90,72c-11.1-6.8,7-38.7-10.7-71.3
	c-13.1-24.1-33.2-25.6-54.8-44.5c-18.5-16.2-39-46-43.8-105.8v-88.7c0-82.7,67-149.7,149.7-149.7h218.7c82.7,0,149.7,67,149.7,149.7
	v88.7C681,672.2,614,739.2,531.3,739.2z"/>
<circle class="st0" cx="735.7" cy="264.8" r="30.3"/>
<path class="st0" d="M583.1,558H260.9c-4.9,0-8.9-4-8.9-8.9v-13.2c0-4.9,4-8.9,8.9-8.9h322.2c4.9,0,8.9,4,8.9,8.9v13.2
	C592,554,588,558,583.1,558z"/>
<path class="st0" d="M463,629.2H260.9c-4.9,0-8.9-4-8.9-8.9v-13.2c0-4.9,4-8.9,8.9-8.9H463c4.9,0,8.9,4,8.9,8.9v13.2
	C471.9,625.2,467.9,629.2,463,629.2z"/>
<path class="st0" d="M583.1,486.8H260.9c-4.9,0-8.9-4-8.9-8.9v-13.2c0-4.9,4-8.9,8.9-8.9h322.2c4.9,0,8.9,4,8.9,8.9v13.2
	C592,482.8,588,486.8,583.1,486.8z"/>
<circle class="st2" cx="735.7" cy="264.8" r="62.3"/>
<circle class="st2" cx="735.7" cy="264.8" r="89.3"/>
<rect x="749.7" y="295.2" class="st3" width="19" height="71.7"/>
<rect x="702.8" y="297.2" class="st3" width="19" height="71.7"/>
</svg>
