<svg id="eMBfrRyFQDo1" xmlns="http://www.w3.org/2000/svg" xmlns:xlink="http://www.w3.org/1999/xlink" viewBox="0 0 1000 1000" shape-rendering="geometricPrecision" text-rendering="geometricPrecision"><style><![CDATA[#eMBfrRyFQDo2_to {animation: eMBfrRyFQDo2_to__to 3000ms linear infinite alternate forwards}@keyframes eMBfrRyFQDo2_to__to { 0% {transform: translate(499.936508px,538.70909px)} 30% {transform: translate(499.936508px,538.70909px)} 50% {transform: translate(500.000137px,301.562515px)} 100% {transform: translate(500.000137px,301.562515px)}} #eMBfrRyFQDo3_to {animation: eMBfrRyFQDo3_to__to 3000ms linear infinite alternate forwards}@keyframes eMBfrRyFQDo3_to__to { 0% {transform: translate(499.998833px,500px)} 30% {transform: translate(499.998833px,500px)} 50% {transform: translate(499.99885px,628.948563px)} 100% {transform: translate(499.99885px,628.948563px)}} #eMBfrRyFQDo11_ts {animation: eMBfrRyFQDo11_ts__ts 3000ms linear infinite alternate forwards}@keyframes eMBfrRyFQDo11_ts__ts { 0% {transform: translate(610.838013px,290.437256px) scale(0,1)} 50% {transform: translate(610.838013px,290.437256px) scale(0,1)} 70% {transform: translate(610.838013px,290.437256px) scale(1,1)} 100% {transform: translate(610.838013px,290.437256px) scale(1,1)}} #eMBfrRyFQDo12_ts {animation: eMBfrRyFQDo12_ts__ts 3000ms linear infinite alternate forwards}@keyframes eMBfrRyFQDo12_ts__ts { 0% {transform: translate(610.838013px,361.982004px) scale(0,1)} 50% {transform: translate(610.838013px,361.982004px) scale(0,1)} 70% {transform: translate(610.838013px,361.982004px) scale(1,1)} 100% {transform: translate(610.838013px,361.982004px) scale(1,1)}}]]></style><g id="eMBfrRyFQDo2_to" transform="translate(499.936508,538.70909)"><path d="M531.0413,154.22246c64.32732.00049,128.66465.63823,192.976-.37253c20.354-.3199,28.90133,4.52418,28.59,26.97561-1.17528,84.74544-.29534,169.51789-.74606,254.27724-.045,8.45555,6.0576,23.39536-11.54269,22.01771-14.48757-1.134-8.3597-14.18447-8.4076-21.85767-.48422-77.60988-.94776-155.233.14154-232.83061.285-20.2906-3.54661-28.22427-26.23728-27.99164-116.3895,1.19333-232.80132,1.006-349.1963.1185-20.07667-.15307-25.48247,5.65554-26.09293,25.67171-.70014,22.958,10.33746,23.6097,27.57833,23.52479c101.08327-.49793,202.17786.416,303.25019-.74852c22.77655-.26243,30.09438,6.01709,29.519,29.15346-1.49756,60.21508-.19018,120.49563-.86225,180.74044-.09412,8.43553,7.08105,23.73562-9.197,24.06974-19.25259.39522-10.32381-16.57974-10.47022-25.43743-.89462-54.1102-1.45827-108.27092.05988-162.35323.58843-20.96585-6.73408-25.44407-26.1094-25.31708q-174.59507,1.14453-349.20023-.00445c-19.824-.133-27.18373,5.45882-26.29874,25.90107c1.45621,33.63733.53282,67.3848.29253,101.08356-.06109,8.5616,2.86841,19.96376-12.07176,19.30141-13.36875-.59274-9.2534-11.227-9.31266-18.34606-.34852-41.86739.28075-83.74689-.43567-125.60489-.22915-13.38567,4.15511-16.29366,17.26819-16.719c44.40355-1.44042,45.56835-2.1921,44.43465-45.68361-.5845-22.42268,5.66035-30.57176,29.09929-30.05649c64.29626,1.41351,128.64389.48745,192.97119.48797Z" transform="translate(-500.000137,-305.460556)" fill="#dc9777"/></g><g id="eMBfrRyFQDo3_to" transform="translate(499.998833,500)"><g transform="translate(-500.000031,-647.069946)"><path d="M757.55505,844.2842q-252.64014,1.00209-505.28028,2.00415c-1.85054-.02744-13.6715-.4002-21.99735-10.19609-4.368765-5.238073-6.788253-11.827718-6.847-18.64828v-340.74805c-.000011-7.650005,3.038938-14.986688,8.448309-20.396058s12.746056-8.448315,20.396061-8.448302h247.10005c7.139337,1.910744,13.996711,4.751144,20.3961,8.44829c33.99013,19.70111,30.72754,45.01974,56.52221,53.90925c5.11267,1.762,20.74128,2.44714,51.9985,3.81754c1.89854.08325,8.05919.34755,12.73654.47193c34.33649.91308,103.66074-2.65833,115.06152,3.40236c4.632264,2.54835,8.847263,5.790589,12.49863,9.61413l.00059.00066c2.895317,3.494148,5.116138,7.495888,6.54937,11.80144c1.70043,152.43492,1.82308,263.54727.69963,278.12681-.23426,3.04007-.84024,11.5026-6.79455,18.58772-3.092016,3.654277-7.038147,6.488931-11.48833,8.2525Z" fill="#dc9777" stroke="#dc9777" stroke-width="20" stroke-miterlimit="10"/><path d="M302.54793,785.98977c-.012722-22.103903,8.762385-43.306141,24.392207-58.935963s36.83206-24.404929,58.935963-24.392207" fill="none" stroke="#2f1919" stroke-width="20" stroke-linecap="round" stroke-miterlimit="10"/><path d="M385.8761,702.6616c22.103903-.012722,43.306141,8.762385,58.935963,24.392207s24.404929,36.83206,24.392207,58.935963" fill="none" stroke="#2f1919" stroke-width="20" stroke-linecap="round" stroke-miterlimit="10"/><circle r="50.0425" transform="translate(385.876 608.087)" fill="none" stroke="#2f1919" stroke-width="20" stroke-miterlimit="10"/><line x1="557.38395" y1="709.16261" x2="718.9124" y2="709.16261" fill="none" stroke="#2f1919" stroke-width="20" stroke-linecap="round" stroke-miterlimit="10"/><line x1="557.38395" y1="785.98977" x2="718.9124" y2="785.98977" fill="none" stroke="#2f1919" stroke-width="20" stroke-linecap="round" stroke-miterlimit="10"/><line x1="557.38395" y1="632.33545" x2="649.68592" y2="632.33545" fill="none" stroke="#2f1919" stroke-width="20" stroke-linecap="round" stroke-miterlimit="10"/></g></g><g id="eMBfrRyFQDo11_ts" transform="translate(610.838013,290.437256) scale(0,1)"><rect width="283.505493" height="22.2388" rx="11.12" ry="11.12" transform="translate(-283.505493,-11.1194)" fill="#dc9777" stroke-width="0"/></g><g id="eMBfrRyFQDo12_ts" transform="translate(610.838013,361.982004) scale(0,1)"><rect width="169.501364" height="22.24" rx="14.61" ry="14.61" transform="translate(-169.501364,-11.12)" fill="#dc9777" stroke-width="0"/></g></svg>